<svg width="145" height="86" viewBox="0 0 145 86" fill="none" xmlns="http://www.w3.org/2000/svg">
<g opacity="0.1">
<path opacity="0.1" d="M84.9934 83.0112V84.9934H83.0112" stroke="#20263C" stroke-miterlimit="10"/>
<path opacity="0.1" d="M79.2053 84.9934H4.88513" stroke="#20263C" stroke-miterlimit="10" stroke-dasharray="5.77 5.77"/>
<path opacity="0.1" d="M2.98222 84.9934H1V83.0112" stroke="#20263C" stroke-miterlimit="10"/>
<path opacity="0.1" d="M1 79.1987V4.88516" stroke="#20263C" stroke-miterlimit="10" stroke-dasharray="5.77 5.77"/>
<path opacity="0.1" d="M1 2.98222V1H2.98222" stroke="#20263C" stroke-miterlimit="10"/>
<path opacity="0.1" d="M6.79474 1H81.1083" stroke="#20263C" stroke-miterlimit="10" stroke-dasharray="5.77 5.77"/>
<path opacity="0.1" d="M83.0112 1H84.9934V2.98222" stroke="#20263C" stroke-miterlimit="10"/>
<path opacity="0.1" d="M84.9934 6.78809V81.1082" stroke="#20263C" stroke-miterlimit="10" stroke-dasharray="5.77 5.77"/>
</g>
<path d="M56.8723 47.9257C56.2016 47.1829 55.6328 46.3541 55.1808 45.4612C54.4667 44.0616 53.4797 42.8191 52.278 41.8069C51.0763 40.7947 49.6841 40.0332 48.1835 39.5674C46.8714 39.1617 45.4983 38.9895 44.1266 39.0586C45.125 39.0016 46.108 39.3239 46.8787 39.9611C47.6495 40.5983 48.151 41.5031 48.2826 42.4945C48.6436 44.6364 49.5929 46.6358 51.0246 48.2693C52.4562 49.9028 54.3139 51.1061 56.3899 51.7448C58.7639 52.4744 61.3078 52.4351 63.6581 51.6325C61.0401 51.2055 58.6462 49.8979 56.8723 47.9257Z" fill="white"/>
<path d="M39.9308 39.1908C40.2359 40.531 40.7725 41.8078 41.5166 42.9636C40.9733 42.1243 40.7642 41.1119 40.9305 40.1261C41.0968 39.1402 41.6266 38.2525 42.4152 37.638C44.0901 36.2526 45.3476 34.4294 46.0476 32.3715C46.7475 30.3137 46.8625 28.1019 46.3797 25.9826C45.8285 23.5581 44.5213 21.3716 42.6465 19.7386C43.5798 22.2336 43.6335 24.9726 42.7984 27.5023C42.4788 28.4573 42.0344 29.3659 41.477 30.2047C40.621 31.5223 40.0379 32.9982 39.7621 34.545C39.4863 36.0919 39.5235 37.6783 39.8714 39.2106L39.9308 39.1908Z" fill="#1852F2"/>
<path d="M46.2409 43.2345C45.7914 44.1282 45.0206 44.819 44.0832 45.1682C43.1458 45.5175 42.1109 45.4994 41.1862 45.1176C39.1484 44.3539 36.9384 44.172 34.8031 44.592C32.6678 45.012 30.6914 46.0176 29.0947 47.4963C27.2742 49.1899 26.0386 51.418 25.5663 53.8592C27.2604 51.8029 29.6051 50.3857 32.2133 49.8419C33.1932 49.6414 34.1942 49.5637 35.1933 49.6106C36.7604 49.6919 38.3278 49.4583 39.8031 48.9238C41.2783 48.3893 42.6316 47.5647 43.7829 46.4986C44.7905 45.5628 45.6268 44.4582 46.2541 43.2345H46.2409Z" fill="#EF0606"/>
<path d="M70.426 46.18C69.286 46.18 68.308 45.994 67.492 45.622C66.688 45.25 66.058 44.704 65.602 43.984C65.158 43.264 64.912 42.37 64.864 41.302C64.852 40.81 64.846 40.282 64.846 39.718C64.846 39.154 64.852 38.614 64.864 38.098C64.912 37.054 65.164 36.172 65.62 35.452C66.076 34.72 66.712 34.168 67.528 33.796C68.344 33.412 69.31 33.22 70.426 33.22C71.218 33.22 71.95 33.322 72.622 33.526C73.294 33.718 73.882 34.006 74.386 34.39C74.89 34.762 75.28 35.218 75.556 35.758C75.844 36.286 75.994 36.886 76.006 37.558C76.018 37.666 75.982 37.756 75.898 37.828C75.826 37.9 75.736 37.936 75.628 37.936H73.198C73.042 37.936 72.922 37.906 72.838 37.846C72.754 37.774 72.682 37.648 72.622 37.468C72.454 36.832 72.178 36.4 71.794 36.172C71.422 35.932 70.96 35.812 70.408 35.812C69.748 35.812 69.226 35.998 68.842 36.37C68.458 36.73 68.248 37.336 68.212 38.188C68.176 39.172 68.176 40.18 68.212 41.212C68.248 42.064 68.458 42.676 68.842 43.048C69.226 43.408 69.748 43.588 70.408 43.588C70.96 43.588 71.428 43.468 71.812 43.228C72.196 42.988 72.466 42.556 72.622 41.932C72.67 41.752 72.736 41.632 72.82 41.572C72.916 41.5 73.042 41.464 73.198 41.464H75.628C75.736 41.464 75.826 41.5 75.898 41.572C75.982 41.644 76.018 41.734 76.006 41.842C75.994 42.514 75.844 43.12 75.556 43.66C75.28 44.188 74.89 44.644 74.386 45.028C73.882 45.4 73.294 45.688 72.622 45.892C71.95 46.084 71.218 46.18 70.426 46.18ZM83.0467 46.18C81.9427 46.18 80.9827 46 80.1667 45.64C79.3507 45.28 78.7147 44.74 78.2587 44.02C77.8027 43.288 77.5507 42.376 77.5027 41.284C77.4907 40.768 77.4847 40.252 77.4847 39.736C77.4847 39.22 77.4907 38.698 77.5027 38.17C77.5507 37.09 77.8027 36.184 78.2587 35.452C78.7267 34.708 79.3687 34.15 80.1847 33.778C81.0007 33.406 81.9547 33.22 83.0467 33.22C84.1267 33.22 85.0747 33.406 85.8907 33.778C86.7187 34.15 87.3667 34.708 87.8347 35.452C88.3027 36.184 88.5547 37.09 88.5907 38.17C88.6147 38.698 88.6267 39.22 88.6267 39.736C88.6267 40.252 88.6147 40.768 88.5907 41.284C88.5427 42.376 88.2907 43.288 87.8347 44.02C87.3787 44.74 86.7427 45.28 85.9267 45.64C85.1107 46 84.1507 46.18 83.0467 46.18ZM83.0467 43.588C83.6827 43.588 84.1987 43.396 84.5947 43.012C85.0027 42.628 85.2187 42.016 85.2427 41.176C85.2667 40.648 85.2787 40.15 85.2787 39.682C85.2787 39.214 85.2667 38.728 85.2427 38.224C85.2187 37.66 85.1107 37.204 84.9187 36.856C84.7387 36.496 84.4867 36.232 84.1627 36.064C83.8387 35.896 83.4667 35.812 83.0467 35.812C82.6387 35.812 82.2727 35.896 81.9487 36.064C81.6247 36.232 81.3667 36.496 81.1747 36.856C80.9827 37.204 80.8747 37.66 80.8507 38.224C80.8387 38.728 80.8327 39.214 80.8327 39.682C80.8327 40.15 80.8387 40.648 80.8507 41.176C80.8867 42.016 81.1027 42.628 81.4987 43.012C81.8947 43.396 82.4107 43.588 83.0467 43.588ZM91.1631 46C91.0311 46 90.9231 45.958 90.8391 45.874C90.7551 45.79 90.7131 45.682 90.7131 45.55V33.85C90.7131 33.718 90.7551 33.61 90.8391 33.526C90.9231 33.442 91.0311 33.4 91.1631 33.4H93.5751C93.7071 33.4 93.8151 33.442 93.8991 33.526C93.9831 33.61 94.0251 33.718 94.0251 33.85V45.55C94.0251 45.682 93.9831 45.79 93.8991 45.874C93.8151 45.958 93.7071 46 93.5751 46H91.1631ZM96.9991 46C96.8671 46 96.7591 45.958 96.6751 45.874C96.5911 45.79 96.5491 45.682 96.5491 45.55V33.85C96.5491 33.718 96.5911 33.61 96.6751 33.526C96.7591 33.442 96.8671 33.4 96.9991 33.4H98.9071C99.1111 33.4 99.2551 33.448 99.3391 33.544C99.4351 33.628 99.4951 33.694 99.5191 33.742L103.911 40.672V33.85C103.911 33.718 103.953 33.61 104.037 33.526C104.121 33.442 104.229 33.4 104.361 33.4H106.521C106.653 33.4 106.761 33.442 106.845 33.526C106.929 33.61 106.971 33.718 106.971 33.85V45.55C106.971 45.67 106.929 45.778 106.845 45.874C106.761 45.958 106.653 46 106.521 46H104.595C104.403 46 104.259 45.952 104.163 45.856C104.079 45.76 104.025 45.694 104.001 45.658L99.6091 38.998V45.55C99.6091 45.682 99.5671 45.79 99.4831 45.874C99.3991 45.958 99.2911 46 99.1591 46H96.9991Z" fill="#C4C4C4"/>
<path d="M109.937 46C109.805 46 109.697 45.958 109.613 45.874C109.529 45.79 109.487 45.682 109.487 45.55V33.85C109.487 33.718 109.529 33.61 109.613 33.526C109.697 33.442 109.805 33.4 109.937 33.4H118.199C118.331 33.4 118.439 33.442 118.523 33.526C118.619 33.61 118.667 33.718 118.667 33.85V35.668C118.667 35.8 118.619 35.908 118.523 35.992C118.439 36.076 118.331 36.118 118.199 36.118H112.655V38.764H117.839C117.971 38.764 118.079 38.812 118.163 38.908C118.259 38.992 118.307 39.1 118.307 39.232V41.032C118.307 41.152 118.259 41.26 118.163 41.356C118.079 41.44 117.971 41.482 117.839 41.482H112.655V45.55C112.655 45.682 112.613 45.79 112.529 45.874C112.445 45.958 112.337 46 112.205 46H109.937ZM124.286 46C124.166 46 124.058 45.958 123.962 45.874C123.878 45.79 123.836 45.682 123.836 45.55V41.68L119.66 33.976C119.648 33.94 119.636 33.91 119.624 33.886C119.612 33.85 119.606 33.814 119.606 33.778C119.606 33.682 119.642 33.598 119.714 33.526C119.798 33.442 119.894 33.4 120.002 33.4H122.252C122.432 33.4 122.57 33.448 122.666 33.544C122.774 33.628 122.84 33.706 122.864 33.778L125.456 38.422L128.048 33.778C128.084 33.706 128.15 33.628 128.246 33.544C128.354 33.448 128.498 33.4 128.678 33.4H130.928C131.036 33.4 131.126 33.442 131.198 33.526C131.27 33.598 131.306 33.682 131.306 33.778C131.306 33.814 131.3 33.85 131.288 33.886C131.288 33.91 131.282 33.94 131.27 33.976L127.076 41.68V45.55C127.076 45.682 127.034 45.79 126.95 45.874C126.866 45.958 126.758 46 126.626 46H124.286Z" fill="#1852F2"/>
</svg>
