<svg width="20" height="20" viewBox="0 0 20 20" fill="none" xmlns="http://www.w3.org/2000/svg">
<path d="M2.50002 0.833324C3.06292 1.63134 3.49344 2.5149 3.77502 3.44999C3.19794 3.95187 2.78893 4.61888 2.60329 5.3608C2.41765 6.10271 2.46435 6.88374 2.73706 7.59826C3.00978 8.31277 3.49535 8.92629 4.12812 9.35584C4.76088 9.78539 5.5103 10.0102 6.27502 9.99999H7.10835C7.14632 11.4645 6.82153 12.9156 6.16289 14.2241C5.50425 15.5327 4.53221 16.6581 3.33335 17.5C3.33335 17.5 10.8334 20.8333 14.1667 13.3333C15.3317 15.0496 15.9158 17.094 15.8334 19.1667C20 11.6667 15.8334 2.49999 6.25002 2.49999C6.0179 2.50076 5.78635 2.52308 5.55835 2.56666C4.7196 1.71616 3.66061 1.11597 2.50002 0.833324Z" fill="white"/>
</svg>
